# xmcd CD database file
#
# Track frame offsets:
#	150
#	6097
#	12441
#	19725
#	27880
#	33948
#	41356
#	48889
#	55816
#	63172
#	71820
#	82073
#	89631
#	98311
#	105919
#	112198
#	121002
#	127038
#	135849
#	141891
#
# Disc length: 1988 seconds
#
# Revision: 1
# Processed by: cddbd v1.4PL0 Copyright (c) Steve Scherf et al.
# Submitted via: CDex 1.50beta9
#
DISCID=fb07c214
DTITLE=cada dia uma história, datas especiais - cada dia uma história, datas especiais
DYEAR=2003
DGENRE=infantil
TTITLE0=pais
TTITLE1=amigo
TTITLE2=carnaval
TTITLE3=circo
TTITLE4=mentira
TTITLE5=livro
TTITLE6=índio
TTITLE7=descobrimento do brasil
TTITLE8=páscoa
TTITLE9=trabalho
TTITLE10=mãe
TTITLE11=escravatura
TTITLE12=meio ambiente
TTITLE13=folclore
TTITLE14=soldado
TTITLE15=independência
TTITLE16=árvore
TTITLE17=criança
TTITLE18=bandeira
TTITLE19=natal
EXTD=YEAR: 2003
EXTT0=
EXTT1=
EXTT2=
EXTT3=
EXTT4=
EXTT5=
EXTT6=
EXTT7=
EXTT8=
EXTT9=
EXTT10=
EXTT11=
EXTT12=
EXTT13=
EXTT14=
EXTT15=
EXTT16=
EXTT17=
EXTT18=
EXTT19=
PLAYORDER=
